<svg xmlns="http://www.w3.org/2000/svg" width="32" height="32" viewBox="0 0 32 32">
    <defs>
        <clipPath id="y8m603yf7a">
            <path data-name="Rectangle 17513" transform="translate(736 185)" style="fill:rgba(0,0,0,.65)" d="M0 0h16v16H0z"/>
        </clipPath>
    </defs>
    <g transform="translate(-733 -232)">
        <circle data-name="Ellipse 283" cx="16" cy="16" r="16" transform="translate(733 232)" style="fill:#dfe2ed"/>
        <g data-name="Mask Group 2221" transform="translate(5 55)" style="clip-path:url(#y8m603yf7a)">
            <g data-name="Layer 2">
                <g data-name="invisible box">
                    <path data-name="Rectangle 17521" style="fill:none" d="M0 0h16v16H0z" transform="translate(736 185)"/>
                </g>
                <g data-name="icons Q2">
                    <path data-name="Path 13411" d="M14 13.333H2.667v-2.1l.133-.1 3.2-3.2 2.033 2.034 4.633-4.6v1.6a.7.7 0 0 0 .567.7A.667.667 0 0 0 14 7V3.667A.667.667 0 0 0 13.333 3H10a.667.667 0 0 0-.667.767.7.7 0 0 0 .7.567h1.733L7.967 8 6 6.067 2.667 9.4V2a.667.667 0 1 0-1.334 0v12.667H14a.667.667 0 1 0 0-1.333z" style="fill:rgba(0,0,0,.65)" transform="translate(736 185)"/>
                </g>
            </g>
        </g>
    </g>
</svg>
