<svg xmlns="http://www.w3.org/2000/svg" width="24" height="24" viewBox="0 0 24 24">
    <defs>
        <clipPath id="m7693co67a">
            <path data-name="Rectangle 21556" transform="translate(1124 44)" style="fill:#bfbfbf" d="M0 0h24v24H0z"/>
        </clipPath>
    </defs>
    <path data-name="Path 75985" d="M22.933 18.126a13.081 13.081 0 0 1-.657-4.08v-3.425a8.816 8.816 0 0 0-7.732-8.86A8.357 8.357 0 0 0 11 2.15a8.164 8.164 0 0 0-3.08 1.805 8.44 8.44 0 0 0-2.071 2.872 8.687 8.687 0 0 0-.739 3.466v3.772a13.047 13.047 0 0 1-.657 4.063l-1.024 3.033.821 1.128h6.009a3.426 3.426 0 0 0 6.851 0h6.009l.819-1.128-1.005-3.034zm-8.041 5.4a1.724 1.724 0 0 1-2.933-1.21h3.427a1.61 1.61 0 0 1-.492 1.21zm-9.455-2.937.636-1.91a14.8 14.8 0 0 0 .76-4.614v-3.772a6.729 6.729 0 0 1 .6-2.77 6.864 6.864 0 0 1 4.123-3.732 6.639 6.639 0 0 1 2.828-.309 7.093 7.093 0 0 1 6.173 7.159v3.446a14.219 14.219 0 0 0 .76 4.614l.636 1.908H5.439v-.021z" transform="translate(-1.683 -1.715)" style="clip-path:url(#m7693co67a)"/>
</svg>
