<svg xmlns="http://www.w3.org/2000/svg" width="20" height="20" viewBox="0 0 20 20">
    <defs>
        <clipPath id="s59g2l4vua">
            <path data-name="Rectangle 21555" transform="translate(45 362)" style="fill:#bfbfbf" d="M0 0h20v20H0z"/>
        </clipPath>
    </defs>
    <g transform="translate(-45 -362)" style="clip-path:url(#s59g2l4vua)">
        <path data-name="Path 76002" d="M19.34 12.005v-1.1l1.375-1.2a1.433 1.433 0 0 0 .272-1.827L19.3 5.014a1.444 1.444 0 0 0-1.7-.644l-1.741.587a8.13 8.13 0 0 0-.939-.537l-.365-1.805a1.433 1.433 0 0 0-1.433-1.153H9.77a1.433 1.433 0 0 0-1.433 1.152l-.365 1.805a8.223 8.223 0 0 0-.946.537l-1.7-.616a1.433 1.433 0 0 0-.462-.04 1.433 1.433 0 0 0-1.239.716L1.934 7.879a1.433 1.433 0 0 0 .294 1.8l1.354 1.239v1.1l-1.354 1.2a1.433 1.433 0 0 0-.294 1.827l1.69 2.865a1.444 1.444 0 0 0 1.7.644l1.741-.587A8.13 8.13 0 0 0 8 18.5l.365 1.805A1.433 1.433 0 0 0 9.8 21.461h3.381a1.433 1.433 0 0 0 1.433-1.153l.365-1.805a8.224 8.224 0 0 0 .946-.537l1.734.587a1.444 1.444 0 0 0 1.7-.644l1.633-2.865a1.433 1.433 0 0 0-.294-1.8zm-1.282 5.186-2.458-.83a6.346 6.346 0 0 1-1.941 1.124l-.508 2.572h-3.38l-.509-2.543a6.7 6.7 0 0 1-1.934-1.124l-2.463.8-1.69-2.865 1.948-1.719a6.375 6.375 0 0 1 0-2.242L3.173 8.6l1.69-2.865 2.457.831a6.346 6.346 0 0 1 1.942-1.129l.508-2.572h3.381l.509 2.543a6.7 6.7 0 0 1 1.934 1.124l2.463-.8L19.749 8.6 17.8 10.315a6.375 6.375 0 0 1 0 2.242l1.948 1.769z" style="fill:#707070" transform="translate(43.535 360.539)"/>
        <path data-name="Path 76003" d="M11.461 15.759a4.255 4.255 0 1 1 3.052-1.246 4.3 4.3 0 0 1-3.052 1.246zm0-7.163A2.8 2.8 0 0 0 8.6 11.461a2.8 2.8 0 0 0 2.865 2.865 2.8 2.8 0 0 0 2.865-2.865A2.8 2.8 0 0 0 11.461 8.6z" style="fill:#707070" transform="translate(43.535 360.539)"/>
    </g>
</svg>
